<svg width="12" height="20" viewBox="0 0 12 20" fill="none" xmlns="http://www.w3.org/2000/svg">
<path fill-rule="evenodd" clip-rule="evenodd" d="M9.5372 19.5937L0.292206 10.6795C0.105305 10.5006 0 10.2559 0 10.0005C0 9.74505 0.105305 9.50034 0.292206 9.32147L9.5372 0.407314C10.1037 -0.135766 11.0117 -0.135766 11.5782 0.407314C11.8482 0.666773 12.0001 1.02102 12.0001 1.39073C12.0001 1.76042 11.8482 2.11468 11.5782 2.37414L3.6692 10.0005L11.5782 17.6249C11.848 17.8847 11.9998 18.239 11.9998 18.6088C11.9998 18.9786 11.848 19.3329 11.5782 19.5927C11.0117 20.1358 10.1037 20.1358 9.53721 19.5927" fill="#171D25" fill-opacity="0.24"/>
</svg>
