<svg width="15" height="16" viewBox="0 0 15 16" fill="none" xmlns="http://www.w3.org/2000/svg">
<rect width="9" height="9" rx="2" fill="#005A7A"/>
<path d="M2 6.78993L3.65237 2H4.78395L6.43631 6.78993H5.48476L5.144 5.76122H3.29232L2.94513 6.78993H2ZM3.54307 4.98969H4.89325L4.096 2.60437H4.34032L3.54307 4.98969Z" fill="white"/>
<rect x="6" y="7" width="9" height="9" rx="2" fill="#0082B1"/>
<path d="M10.8671 10.3772L10.4768 10.7993C10.4768 10.7993 10.6349 13.4618 10.515 14.4484C10.5046 14.5346 10.6051 14.5883 10.671 14.5319C10.8518 14.3771 11.0943 14.0799 11.0991 13.5974C11.1057 12.9252 10.9848 10.9132 10.9536 10.4078C10.9509 10.364 10.897 10.345 10.8671 10.3772Z" fill="white"/>
<path d="M10.8497 9.5968C10.8365 9.53275 10.7918 9.47749 10.7316 9.45219C10.6842 9.43234 10.6308 9.42964 10.58 9.43742C10.5125 9.44771 10.443 9.48801 10.4504 9.5663C10.455 9.61468 10.4888 9.65684 10.5303 9.68196C10.6134 9.73213 10.713 9.72597 10.8057 9.71885C11.0101 9.70313 11.2148 9.6914 11.4196 9.68363C11.3688 9.77896 11.3181 9.87422 11.2672 9.96955C11.2618 9.97978 11.2562 9.99012 11.2479 9.9982C11.2358 10.0099 11.2193 10.0154 11.2034 10.0206C10.8932 10.1216 10.5848 10.2286 10.2811 10.3478C10.1835 10.3861 10.0852 10.4263 10 10.4875C10.1026 10.3103 10.2258 10.145 10.3664 9.99604C10.2629 9.947 10.1777 9.86035 10.1304 9.75599C10.0738 9.63106 10.0779 9.49555 10.1219 9.36781C10.2746 8.92502 11.0284 8.87921 11.0994 9.24563C11.0994 9.24563 11.1805 9.51032 10.8548 9.62227" fill="white"/>
<path d="M10 3H10.5C11.8807 3 13 4.11929 13 5.5" stroke="#0082B1" stroke-width="0.5" stroke-linecap="round"/>
<path d="M5 14L4.5 14C3.11929 14 2 12.8807 2 11.5" stroke="#0082B1" stroke-width="0.5" stroke-linecap="round"/>
<path d="M1 12.5L2 11L3.5 12" stroke="#0082B1" stroke-width="0.5" stroke-linecap="round"/>
</svg>
