<svg width="15" height="17" viewBox="0 0 15 17" fill="none" xmlns="http://www.w3.org/2000/svg">
<path d="M7.5 12.9524C7.99728 12.9524 8.47419 12.7818 8.82582 12.4782C9.17746 12.1745 9.375 11.7627 9.375 11.3333C9.375 10.9039 9.17746 10.4921 8.82582 10.1885C8.47419 9.88486 7.99728 9.71429 7.5 9.71429C7.00272 9.71429 6.52581 9.88486 6.17418 10.1885C5.82254 10.4921 5.625 10.9039 5.625 11.3333C5.625 11.7627 5.82254 12.1745 6.17418 12.4782C6.52581 12.7818 7.00272 12.9524 7.5 12.9524ZM13.125 5.66667C13.6223 5.66667 14.0992 5.83724 14.4508 6.14087C14.8025 6.44451 15 6.85632 15 7.28571V15.381C15 15.8103 14.8025 16.2222 14.4508 16.5258C14.0992 16.8294 13.6223 17 13.125 17H1.875C1.37772 17 0.900805 16.8294 0.549175 16.5258C0.197544 16.2222 0 15.8103 0 15.381V7.28571C0 6.85632 0.197544 6.44451 0.549175 6.14087C0.900805 5.83724 1.37772 5.66667 1.875 5.66667H2.8125V4.04762C2.8125 2.97412 3.30636 1.9446 4.18544 1.18552C5.06451 0.426444 6.2568 0 7.5 0C8.11557 0 8.72511 0.104695 9.29383 0.308107C9.86254 0.511519 10.3793 0.809664 10.8146 1.18552C11.2498 1.56138 11.5951 2.00758 11.8307 2.49866C12.0663 2.98974 12.1875 3.51608 12.1875 4.04762V5.66667H13.125ZM7.5 1.61905C6.75408 1.61905 6.03871 1.87491 5.51126 2.33036C4.98382 2.78581 4.6875 3.40352 4.6875 4.04762V5.66667H10.3125V4.04762C10.3125 3.40352 10.0162 2.78581 9.48874 2.33036C8.96129 1.87491 8.24592 1.61905 7.5 1.61905Z" fill="#0082B1"/>
</svg>
