<svg width="127" height="101" viewBox="0 0 127 101" fill="none" xmlns="http://www.w3.org/2000/svg">
<path d="M105.6 48.7229V57.012C105.6 73.5904 101.3 77.7349 84.1 77.7349H41.1C23.9 77.7349 19.6 73.5904 19.6 57.012V48.7229C19.6 34.88 22.61 29.6993 33.575 28.4145C35.467 28.1658 37.617 28.0414 40.025 28H85.175C87.583 28.0414 89.733 28.1658 91.625 28.4145C102.59 29.6993 105.6 34.88 105.6 48.7229Z" fill="#038257" fill-opacity="0.06"/>
<path d="M85.7118 21.7952V28.576C84.2378 28.3823 82.5628 28.2854 80.6868 28.2531V21.7952C80.6868 11.6241 77.7053 4.84339 63.0993 4.84339C48.4932 4.84339 45.5117 11.6241 45.5117 21.7952V28.2531C43.6357 28.2854 41.9607 28.3823 40.4867 28.576V21.7952C40.4867 12.4314 42.8317 0 63.0993 0C83.3668 0 85.7118 12.4314 85.7118 21.7952Z" fill="#005D7F"/>
<g filter="url(#filter0_d_1_1000)">
<path d="M96.6002 44.3946V50.8525C96.6002 63.7682 93.2502 66.9971 79.8501 66.9971H46.35C32.95 66.9971 29.6 63.7682 29.6 50.8525V44.3946C29.6 33.61 31.945 29.5739 40.4875 28.5729C41.9615 28.3792 43.6365 28.2823 45.5125 28.25H80.6876C82.5636 28.2823 84.2387 28.3792 85.7127 28.5729C94.2552 29.5739 96.6002 33.61 96.6002 44.3946Z" fill="#0082B1"/>
</g>
<path d="M49.7 50.8605C49.2645 50.8605 48.829 50.7636 48.427 50.6022C47.9915 50.4407 47.6565 50.2147 47.3215 49.9241C46.7185 49.3107 46.35 48.4711 46.35 47.6316C46.35 47.2118 46.4505 46.7921 46.618 46.4046C46.7855 46.0171 47.02 45.6619 47.3215 45.339C47.6565 45.0484 47.9915 44.8224 48.427 44.661C49.6665 44.1444 51.1405 44.4349 52.0785 45.339C52.38 45.6619 52.6146 46.0171 52.7821 46.4046C52.9496 46.7921 53.05 47.2118 53.05 47.6316C53.05 48.4711 52.6815 49.3107 52.0785 49.9241C51.442 50.5054 50.571 50.8605 49.7 50.8605Z" fill="white"/>
<path d="M63.1024 50.8628C62.1978 50.8628 61.3604 50.5077 60.7239 49.9265C60.4224 49.6036 60.1878 49.2484 60.0203 48.8609C59.8528 48.4734 59.7523 48.0537 59.7523 47.6339C59.7523 46.7621 60.1209 45.9548 60.7239 45.3413C61.9634 44.1466 64.2078 44.1466 65.4808 45.3413C66.0838 45.9548 66.4524 46.7621 66.4524 47.6339C66.4524 48.0537 66.3519 48.4734 66.1844 48.8609C66.0169 49.2484 65.7823 49.6036 65.4808 49.9265C64.8443 50.5077 63.9734 50.8628 63.1024 50.8628Z" fill="white"/>
<path d="M76.5008 50.855C75.6298 50.855 74.7588 50.4999 74.1223 49.9186C73.5193 49.3051 73.1508 48.4979 73.1508 47.6261C73.1508 46.7543 73.5193 45.947 74.1223 45.3335C75.3953 44.1388 77.6398 44.1388 78.8793 45.3335C79.0133 45.495 79.1473 45.6564 79.2813 45.8502C79.4153 46.0116 79.5158 46.2053 79.5828 46.3991C79.6833 46.5928 79.7503 46.7866 79.7838 46.9803C79.8173 47.2063 79.8508 47.4323 79.8508 47.6261C79.8508 48.4656 79.4823 49.3051 78.8793 49.9186C78.2428 50.4999 77.3718 50.855 76.5008 50.855Z" fill="white"/>
<defs>
<filter id="filter0_d_1_1000" x="-1.90735e-06" y="2.65" width="126.2" height="97.9471" filterUnits="userSpaceOnUse" color-interpolation-filters="sRGB">
<feFlood flood-opacity="0" result="BackgroundImageFix"/>
<feColorMatrix in="SourceAlpha" type="matrix" values="0 0 0 0 0 0 0 0 0 0 0 0 0 0 0 0 0 0 127 0" result="hardAlpha"/>
<feOffset dy="4"/>
<feGaussianBlur stdDeviation="14.8"/>
<feComposite in2="hardAlpha" operator="out"/>
<feColorMatrix type="matrix" values="0 0 0 0 0 0 0 0 0 0 0 0 0 0 0 0 0 0 0.14 0"/>
<feBlend mode="normal" in2="BackgroundImageFix" result="effect1_dropShadow_1_1000"/>
<feBlend mode="normal" in="SourceGraphic" in2="effect1_dropShadow_1_1000" result="shape"/>
</filter>
</defs>
</svg>
