<svg width="17" height="20" viewBox="0 0 17 20" fill="none" xmlns="http://www.w3.org/2000/svg">
<ellipse cx="12.2353" cy="3.37752" rx="3.42576" ry="3.37752" fill="#FE1E00"/>
<path d="M11.1915 17.9947C10.9948 18.5753 10.6304 19.0787 10.1485 19.4341C9.66651 19.7896 9.09031 19.9803 8.50008 19.98C7.90985 19.9803 7.33365 19.7896 6.85164 19.4341C6.36976 19.0787 6.00538 18.5753 5.80867 17.9947H11.1915ZM8.46785 1.12553C8.063 1.78223 7.83016 2.55382 7.83016 3.37846C7.8304 5.77649 9.80216 7.72013 12.2345 7.72026C13.2966 7.72026 14.2706 7.34925 15.0313 6.73198C15.1138 7.16991 15.1573 7.61803 15.1573 8.07085V11.5718C15.1575 11.7259 15.1918 11.8785 15.2579 12.0162L16.8897 15.4224C16.9695 15.5889 17.0071 15.7746 16.9991 15.9605C16.991 16.1462 16.9375 16.3267 16.8438 16.4849C16.7501 16.6432 16.6187 16.7742 16.463 16.8648C16.3074 16.9552 16.1323 17.0025 15.9542 17.0025H1.04598C0.867892 17.0025 0.692775 16.9552 0.53719 16.8648C0.381425 16.7742 0.250091 16.6432 0.156331 16.4849C0.0626676 16.3267 0.00911997 16.1462 0.00105761 15.9605C-0.00695574 15.7746 0.0306706 15.5889 0.110433 15.4224L1.74325 12.0162C1.80905 11.8784 1.84299 11.7258 1.84285 11.5718V8.07085C1.8429 6.22849 2.54469 4.46149 3.79305 3.15874C5.03384 1.86393 6.71403 1.13438 8.46785 1.12553Z" fill="#006488"/>
</svg>
