<svg width="18" height="17" viewBox="0 0 18 17" fill="none" xmlns="http://www.w3.org/2000/svg">
<circle cx="12.9184" cy="12.2632" r="4.4447" fill="white" stroke="#0082B1" stroke-width="0.584147"/>
<path d="M13.3115 0C14.025 0 14.6035 0.578524 14.6035 1.29199V7.15039C14.0734 6.97576 13.5066 6.88086 12.918 6.88086C9.94554 6.88111 7.53636 9.29026 7.53613 12.2627C7.53613 13.5131 7.96342 14.6633 8.67871 15.5771H1.29199C0.578524 15.5771 0 14.9986 0 14.2852V1.29199C0 0.578524 0.578524 0 1.29199 0H13.3115Z" fill="#0082B1"/>
<path d="M12.9185 10.11V13.0695L14.2964 14.056" stroke="#0082B1" stroke-width="0.973579" stroke-linecap="round" stroke-linejoin="round"/>
<path d="M2.15308 3.65091H12.0572" stroke="#02668A" stroke-opacity="0.57" stroke-width="1.07654" stroke-linecap="round"/>
<path d="M2.15308 6.23462H9.04293" stroke="#02668A" stroke-opacity="0.53" stroke-width="1.07654" stroke-linecap="round"/>
<path d="M2.15308 8.81818H7.10516" stroke="#02668A" stroke-opacity="0.33" stroke-width="1.07654" stroke-linecap="round"/>
</svg>
