<svg width="16" height="16" viewBox="0 0 16 16" fill="none" xmlns="http://www.w3.org/2000/svg">
<path fill-rule="evenodd" clip-rule="evenodd" d="M5.02107 2.46259C4.5459 3.05248 4.36379 3.93078 4.36379 5.09091V6.54546C4.36379 6.94712 4.03817 7.27273 3.63651 7.27273C3.23485 7.27273 2.90924 6.94712 2.90924 6.54546V5.09091C2.90924 3.84377 3.09076 2.54025 3.88832 1.55014C4.71324 0.52605 6.05749 0 8.00015 0C9.9428 0 11.2871 0.52605 12.112 1.55014C12.9095 2.54025 13.0911 3.84377 13.0911 5.09091V6.54546C13.0911 6.94712 12.7654 7.27273 12.3638 7.27273C11.9621 7.27273 11.6365 6.94712 11.6365 6.54546V5.09091C11.6365 3.93078 11.4544 3.05248 10.9792 2.46259C10.5314 1.90668 9.69386 1.45455 8.00015 1.45455C6.30644 1.45455 5.46887 1.90668 5.02107 2.46259Z" fill="#7D8695"/>
<path fill-rule="evenodd" clip-rule="evenodd" d="M7.99983 9.81828C7.39734 9.81828 6.90892 10.3067 6.90892 10.9092C6.90892 11.5117 7.39734 12.0001 7.99983 12.0001C8.60232 12.0001 9.09074 11.5117 9.09074 10.9092C9.09074 10.3067 8.60232 9.81828 7.99983 9.81828ZM5.45438 10.9092C5.45438 9.50338 6.59401 8.36374 7.99983 8.36374C9.40565 8.36374 10.5453 9.50338 10.5453 10.9092C10.5453 12.315 9.40565 13.4546 7.99983 13.4546C6.59401 13.4546 5.45438 12.315 5.45438 10.9092Z" fill="#7D8695"/>
<path fill-rule="evenodd" clip-rule="evenodd" d="M1.96881 7.78692C1.65463 8.1011 1.45455 8.72201 1.45455 10.1818V11.6363C1.45455 13.096 1.65463 13.717 1.96881 14.0311C2.28298 14.3453 2.90389 14.5454 4.36364 14.5454H11.6364C13.0961 14.5454 13.717 14.3453 14.0312 14.0311C14.3454 13.717 14.5455 13.096 14.5455 11.6363V10.1818C14.5455 8.72201 14.3454 8.1011 14.0312 7.78692C13.717 7.47274 13.0961 7.27266 11.6364 7.27266H4.36364C2.90389 7.27266 2.28298 7.47274 1.96881 7.78692ZM0.940286 6.7584C1.71702 5.98167 2.91429 5.81812 4.36364 5.81812H11.6364C13.0857 5.81812 14.283 5.98167 15.0597 6.7584C15.8364 7.53513 16 8.7324 16 10.1818V11.6363C16 13.0856 15.8364 14.2829 15.0597 15.0596C14.283 15.8364 13.0857 15.9999 11.6364 15.9999H4.36364C2.91429 15.9999 1.71702 15.8364 0.940286 15.0596C0.163553 14.2829 0 13.0856 0 11.6363V10.1818C0 8.7324 0.163553 7.53513 0.940286 6.7584Z" fill="#7D8695"/>
</svg>
