<svg width="94" height="111" viewBox="0 0 94 111" fill="none" xmlns="http://www.w3.org/2000/svg">
<path d="M38.693 1.28575L11.4221 11.6271C5.1372 14.005 0 21.5259 0 28.3279V69.4167C0 75.9422 4.26286 84.5138 9.45472 88.4402L32.9547 106.192C40.6605 112.054 53.3395 112.054 61.0453 106.192L84.5454 88.4402C89.7373 84.5138 94 75.9422 94 69.4167V28.3279C94 21.5259 88.8628 14.005 82.5779 11.6271L55.307 1.28575C50.6617 -0.428583 43.229 -0.428583 38.693 1.28575Z" fill="#038257" fill-opacity="0.06"/>
<path d="M41.6977 20.8225L24.2907 27.4234C20.2791 28.9412 17 33.7418 17 38.0835V64.3103C17 68.4756 19.721 73.9468 23.0349 76.453L38.0349 87.7838C42.9535 91.5255 51.0465 91.5255 55.9651 87.7838L70.9652 76.453C74.2791 73.9468 77 68.4756 77 64.3103V38.0835C77 33.7418 73.7209 28.9412 69.7093 27.4234L52.3023 20.8225C49.3372 19.7283 44.593 19.7283 41.6977 20.8225Z" fill="#0082B1"/>
<path d="M46.8424 52.7146C46.9122 52.7146 46.9819 52.7146 47.0517 52.7146H47.1216H47.1913C51.2029 52.5734 54.3424 49.2906 54.3773 45.196C54.3773 41.0307 51.0285 37.6421 46.9123 37.6421C42.796 37.6421 39.4471 41.0307 39.4471 45.196C39.5169 49.2553 42.6564 52.5734 46.8424 52.7146Z" fill="white"/>
<path d="M54.8295 60.1613C50.6086 57.3374 43.7713 57.3374 39.5155 60.1613C37.562 61.5026 36.4109 63.4087 36.4109 65.3854C36.4109 67.3975 37.5271 69.233 39.5155 70.5743C41.6434 71.9863 44.3992 72.7275 47.155 72.7275C49.9109 72.7275 52.7016 72.0216 54.7946 70.5743C56.7481 69.233 57.8993 67.3269 57.8993 65.3502C57.9342 63.3381 56.8179 61.5026 54.8295 60.1613Z" fill="white"/>
</svg>
