<svg width="18" height="19" viewBox="0 0 18 19" fill="none" xmlns="http://www.w3.org/2000/svg">
<path fill-rule="evenodd" clip-rule="evenodd" d="M8.00644 1.84535e-08C6.72963 0.000111182 5.47135 0.312261 4.3366 0.910408C3.20184 1.50855 2.2235 2.37535 1.48321 3.43848C0.742925 4.50161 0.26215 5.73025 0.0809993 7.02188C-0.100152 8.31352 0.0235751 9.6307 0.441857 10.8635C0.860138 12.0964 1.56085 13.2091 2.48552 14.1089C3.41019 15.0087 4.53201 15.6694 5.75739 16.0361C6.98278 16.4027 8.27618 16.4645 9.5297 16.2164C10.7832 15.9683 11.9605 15.4174 12.9633 14.6097L16.4036 18.1255C16.5812 18.3008 16.8192 18.3979 17.0662 18.3957C17.3132 18.3935 17.5494 18.2922 17.7241 18.1138C17.8987 17.9353 17.9978 17.6938 18 17.4414C18.0021 17.189 17.9072 16.9458 17.7356 16.7642L14.2953 13.2485C15.226 12.0419 15.8055 10.5919 15.9675 9.0644C16.1295 7.53693 15.8674 5.99371 15.2112 4.61136C14.555 3.22901 13.5312 2.06338 12.2571 1.24787C10.9829 0.432349 9.50986 -0.000103146 8.00644 1.84535e-08ZM1.88335 8.18284C1.88335 6.52326 2.52846 4.93165 3.67676 3.75814C4.82506 2.58464 6.3825 1.92537 8.00644 1.92537C9.63039 1.92537 11.1878 2.58464 12.3361 3.75814C13.4844 4.93165 14.1295 6.52326 14.1295 8.18284C14.1295 9.84243 13.4844 11.434 12.3361 12.6075C11.1878 13.781 9.63039 14.4403 8.00644 14.4403C6.3825 14.4403 4.82506 13.781 3.67676 12.6075C2.52846 11.434 1.88335 9.84243 1.88335 8.18284Z" fill="#0082B1"/>
</svg>
