<svg width="15" height="19" viewBox="0 0 15 19" fill="none" xmlns="http://www.w3.org/2000/svg">
<path d="M0.678599 3.16782C4.51665 3.36397 6.43051 1.9752 7.19508 0.809652C7.37296 0.538482 7.87458 0.482447 8.0906 0.72433C9.70061 2.52708 12.7528 3.08258 14.4533 3.14311C14.632 3.14947 14.7836 3.28449 14.8069 3.46182C16.063 13.0034 10.9008 17.0022 7.69391 18.3891C7.61097 18.4249 7.51719 18.4255 7.4326 18.3937C-0.158069 15.5409 -0.512008 7.4437 0.304227 3.44777C0.339697 3.27413 0.501597 3.15878 0.678599 3.16782Z" fill="#0082B1"/>
<path d="M10.3542 7.09605L6.56009 10.9866L4.94103 9.32634C4.63403 9.01163 4.13627 9.01163 3.82937 9.32634C3.52237 9.64127 3.52237 10.1516 3.82937 10.4664L6.00426 12.6967C6.15771 12.8541 6.35895 12.9328 6.56009 12.9328C6.76123 12.9328 6.96247 12.8541 7.11592 12.6967L11.4658 8.23613C11.7729 7.92131 11.7729 7.41087 11.4659 7.09615C11.159 6.78133 10.6612 6.78123 10.3542 7.09605Z" fill="white"/>
</svg>
