<svg width="23" height="27" viewBox="0 0 23 27" fill="none" xmlns="http://www.w3.org/2000/svg">
<path d="M22.891 2.0367V19.8461C22.891 20.0277 22.8695 20.2082 22.8279 20.3823C22.7236 20.8223 22.4925 21.2288 22.1559 21.5503L17.5071 25.9862C17.1692 26.309 16.7447 26.5274 16.2877 26.6198C16.1861 26.6401 16.0839 26.6547 15.9797 26.6629C15.9159 26.6674 15.8521 26.6699 15.7876 26.6699H2.09458C0.938258 26.6699 0 25.7583 0 24.6333V2.0367C0 0.911731 0.937589 9.15527e-05 2.09458 9.15527e-05H20.7964C21.9534 9.15527e-05 22.891 0.911731 22.891 2.0367Z" fill="#0082B1"/>
<path d="M16.4072 8.19529H6.48303C6.02856 8.19529 5.66016 7.83708 5.66016 7.39519C5.66016 6.9533 6.02856 6.59509 6.48303 6.59509H16.4073C16.8618 6.59509 17.2302 6.9533 17.2302 7.39519C17.2301 7.83708 16.8617 8.19529 16.4072 8.19529Z" fill="white"/>
<path d="M16.4072 13.2703H6.48303C6.02856 13.2703 5.66016 12.9121 5.66016 12.4702C5.66016 12.0283 6.02856 11.6701 6.48303 11.6701H16.4073C16.8618 11.6701 17.2302 12.0283 17.2302 12.4702C17.2301 12.9121 16.8617 13.2703 16.4072 13.2703Z" fill="white"/>
<path d="M12.6046 18.3454H6.48303C6.02856 18.3454 5.66016 17.9872 5.66016 17.5453C5.66016 17.1034 6.02856 16.7452 6.48303 16.7452H12.6046C13.0591 16.7452 13.4275 17.1034 13.4275 17.5453C13.4275 17.9872 13.0591 18.3454 12.6046 18.3454Z" fill="white"/>
<path d="M22.8908 19.3154V19.8459C22.8908 20.0276 22.8693 20.208 22.8276 20.3822C22.7234 20.8221 22.4923 21.2286 22.1557 21.5501L17.5069 25.986C17.169 26.3088 16.7445 26.5273 16.2874 26.6197C16.1859 26.6399 16.0837 26.6545 15.9795 26.6628V19.3154H22.8908Z" fill="#004247"/>
</svg>
