<svg width="59" height="12" viewBox="0 0 59 12" fill="none" xmlns="http://www.w3.org/2000/svg">
<path d="M3.36 11L0.132 2.06H1.392L4.128 9.92H3.876L6.612 2.06H7.872L4.656 11H3.36ZM8.86791 11V4.532H9.98391V11H8.86791ZM8.86791 3.5V2.06H9.98391V3.5H8.86791ZM14.6916 11.144C14.0676 11.144 13.5116 10.996 13.0236 10.7C12.5356 10.404 12.1516 10 11.8716 9.488C11.5916 8.968 11.4516 8.388 11.4516 7.748C11.4516 7.1 11.5876 6.524 11.8596 6.02C12.1396 5.516 12.5156 5.12 12.9876 4.832C13.4676 4.536 14.0036 4.388 14.5956 4.388C15.0756 4.388 15.4996 4.476 15.8676 4.652C16.2436 4.82 16.5596 5.052 16.8156 5.348C17.0796 5.636 17.2796 5.968 17.4156 6.344C17.5596 6.712 17.6316 7.096 17.6316 7.496C17.6316 7.584 17.6236 7.684 17.6076 7.796C17.5996 7.9 17.5876 8 17.5716 8.096H12.2676V7.136H16.9236L16.3956 7.568C16.4676 7.152 16.4276 6.78 16.2756 6.452C16.1236 6.124 15.8996 5.864 15.6036 5.672C15.3076 5.48 14.9716 5.384 14.5956 5.384C14.2196 5.384 13.8756 5.48 13.5636 5.672C13.2516 5.864 13.0076 6.14 12.8316 6.5C12.6636 6.852 12.5956 7.272 12.6276 7.76C12.5956 8.232 12.6676 8.648 12.8436 9.008C13.0276 9.36 13.2836 9.636 13.6116 9.836C13.9476 10.028 14.3116 10.124 14.7036 10.124C15.1356 10.124 15.4996 10.024 15.7956 9.824C16.0916 9.624 16.3316 9.368 16.5156 9.056L17.4516 9.536C17.3236 9.832 17.1236 10.104 16.8516 10.352C16.5876 10.592 16.2716 10.784 15.9036 10.928C15.5436 11.072 15.1396 11.144 14.6916 11.144ZM20.5747 11L18.3547 4.532H19.5907L21.3547 9.944L20.9227 9.932L22.6507 4.532H23.7067L25.4347 9.932L25.0027 9.944L26.7787 4.532H28.0027L25.7827 11H24.7147L23.0107 5.6H23.3467L21.6427 11H20.5747ZM32.9709 11.144C32.5469 11.144 32.1709 11.068 31.8429 10.916C31.5229 10.756 31.2709 10.54 31.0869 10.268C30.9029 9.988 30.8109 9.668 30.8109 9.308C30.8109 8.964 30.8829 8.656 31.0269 8.384C31.1789 8.104 31.4109 7.868 31.7229 7.676C32.0429 7.484 32.4429 7.348 32.9229 7.268L35.3229 6.872V7.808L33.1749 8.168C32.7589 8.24 32.4549 8.372 32.2629 8.564C32.0789 8.756 31.9869 8.992 31.9869 9.272C31.9869 9.536 32.0909 9.756 32.2989 9.932C32.5149 10.108 32.7829 10.196 33.1029 10.196C33.5109 10.196 33.8629 10.112 34.1589 9.944C34.4629 9.768 34.6989 9.532 34.8669 9.236C35.0429 8.94 35.1309 8.612 35.1309 8.252V6.608C35.1309 6.256 34.9989 5.972 34.7349 5.756C34.4789 5.532 34.1389 5.42 33.7149 5.42C33.3469 5.42 33.0189 5.516 32.7309 5.708C32.4509 5.892 32.2429 6.14 32.1069 6.452L31.1349 5.948C31.2549 5.652 31.4469 5.388 31.7109 5.156C31.9749 4.916 32.2829 4.728 32.6349 4.592C32.9869 4.456 33.3549 4.388 33.7389 4.388C34.2349 4.388 34.6709 4.484 35.0469 4.676C35.4229 4.86 35.7149 5.12 35.9229 5.456C36.1389 5.784 36.2469 6.168 36.2469 6.608V11H35.1549V9.776L35.3589 9.848C35.2229 10.104 35.0389 10.328 34.8069 10.52C34.5749 10.712 34.3029 10.864 33.9909 10.976C33.6789 11.088 33.3389 11.144 32.9709 11.144ZM37.9773 11V1.916H39.0933V11H37.9773ZM40.8249 11V1.916H41.9409V11H40.8249Z" fill="#0082B1"/>
<path d="M48 5.87709H56.5" stroke="#0082B1" stroke-width="1.07143" stroke-linecap="round"/>
<path d="M54 2.93851L57.5 5.87706L54 9.30537" stroke="#0082B1" stroke-linecap="round"/>
</svg>
